<svg width="604" height="459" viewBox="0 0 604 459" fill="none" xmlns="http://www.w3.org/2000/svg">
<path fill-rule="evenodd" clip-rule="evenodd" d="M347.427 0.621957C404.897 -1.46512 452.789 32.6431 497.381 60.1653C540.962 87.064 585.467 116.44 599.659 156.301C613.685 195.698 586.259 233.36 572.888 272.25C557.514 316.965 559.902 367.722 515.753 400.342C467.008 436.358 394.299 468.489 325.515 455.027C256.486 441.518 247.271 370.058 191.581 336.899C136.41 304.05 34.3308 313.564 7.69258 265.791C-18.4247 218.952 34.6869 168.787 76.0974 129.792C109.699 98.1512 169.104 92.3462 215.174 70.414C261.919 48.1603 290.867 2.676 347.427 0.621957Z" fill="#0076BE" fill-opacity="0.06"/>
</svg>
