<svg width="691" height="471" viewBox="0 0 691 471" fill="none" xmlns="http://www.w3.org/2000/svg">
<path fill-rule="evenodd" clip-rule="evenodd" d="M429.193 50.5546C475.917 70.2457 513.448 101.085 553.152 130.179C601.857 165.871 674.875 196.855 688.997 240.941C703.125 285.039 637.333 301.246 619.263 336.549C601.923 370.428 619.044 420.165 585.131 443.864C550.094 468.35 492.679 477.137 434.334 465.787C377.712 454.771 334.487 403.323 278.174 384.148C207.137 359.96 122.676 386.786 67.3263 340.82C14.5414 296.984 60.84 244.798 49.5299 194.268C39.3031 148.578 -12.9095 95.8937 4.02929 58.0295C20.9674 20.1667 81.3701 8.9167 135.711 1.62335C182.744 -4.68931 237.555 10.7038 290.665 19.5585C337.359 27.3437 383.528 31.3099 429.193 50.5546Z" fill="#0076BE" fill-opacity="0.06"/>
</svg>